<svg width="22" height="20" viewBox="0 0 22 20" fill="none" xmlns="http://www.w3.org/2000/svg">
<path d="M10.3638 12.0367L7.92845 9.60136C7.81438 9.48797 7.66007 9.42432 7.49923 9.42432C7.33838 9.42432 7.18407 9.48797 7.07 9.60136L3.38654 13.3335V15.0565L7.52053 10.9225L9.52361 12.8952L7.24047 15.1783H8.91477L14.0594 10.0336L18.0473 14.0032V12.2863L14.51 8.74899C14.3959 8.63559 14.2416 8.57195 14.0807 8.57195C13.9199 8.57195 13.7656 8.63559 13.6515 8.74899L10.3638 12.0367Z" fill="#FBFBFB" stroke="#FBFBFB" stroke-width="0.5"/>
<path d="M19.2651 7.43998V17.6563H2.21767V3.04418H13.4811C13.4827 2.63245 13.5401 2.22284 13.6516 1.82651H2.21767C1.89473 1.82651 1.58501 1.9548 1.35665 2.18316C1.12829 2.41151 1 2.72123 1 3.04418V17.6563C1 17.9792 1.12829 18.2889 1.35665 18.5173C1.58501 18.7456 1.89473 18.8739 2.21767 18.8739H19.2651C19.588 18.8739 19.8978 18.7456 20.1261 18.5173C20.3545 18.2889 20.4828 17.9792 20.4828 17.6563V6.9042C20.1054 7.14167 19.6951 7.3222 19.2651 7.43998Z" fill="#FBFBFB" stroke="#FBFBFB" stroke-width="0.5"/>
<path d="M18.0475 6.08836C19.7287 6.08836 21.0917 4.72544 21.0917 3.04418C21.0917 1.36293 19.7287 0 18.0475 0C16.3662 0 15.0033 1.36293 15.0033 3.04418C15.0033 4.72544 16.3662 6.08836 18.0475 6.08836Z" fill="#FBFBFB"/>
</svg>
