<svg width="21" height="21" viewBox="0 0 21 21" fill="none" xmlns="http://www.w3.org/2000/svg">
<path d="M18.0824 0H6.02747C4.91942 0 4.01831 0.901108 4.01831 2.00916V14.0641C4.01831 15.1722 4.91942 16.0733 6.02747 16.0733H18.0824C19.1905 16.0733 20.0916 15.1722 20.0916 14.0641V2.00916C20.0916 0.901108 19.1905 0 18.0824 0ZM6.02747 14.0641V2.00916H18.0824L18.0844 14.0641H6.02747Z" fill="#FBFBFB"/>
<path d="M2.00916 6.02747H0V18.0824C0 19.1905 0.901108 20.0916 2.00916 20.0916H14.0641V18.0824H2.00916V6.02747Z" fill="#FBFBFB"/>
<path d="M10.0458 10.0458L9.04126 9.04121L7.0321 12.0549H17.0779L13.0596 6.02747L10.0458 10.0458Z" fill="#FBFBFB"/>
</svg>
