<svg width="21" height="19" viewBox="0 0 21 19" fill="none" xmlns="http://www.w3.org/2000/svg">
<g clip-path="url(#clip0_140_473)">
<path d="M18.9013 0.95C18.9013 0.698044 18.7907 0.456408 18.5939 0.278249C18.3971 0.100089 18.1302 0 17.8519 0H12.6052C12.3269 0 12.0599 0.100089 11.8632 0.278249C11.6664 0.456408 11.5558 0.698044 11.5558 0.95C11.5558 1.20196 11.6664 1.44359 11.8632 1.62175C12.0599 1.79991 12.3269 1.9 12.6052 1.9H15.3188L9.98177 6.7317L8.10028 5.02835C7.90349 4.85025 7.63663 4.7502 7.35838 4.7502C7.08013 4.7502 6.81327 4.85025 6.61649 5.02835L0.320356 10.7284C0.220132 10.816 0.14019 10.9208 0.0851939 11.0367C0.0301982 11.1526 0.00125038 11.2773 3.962e-05 11.4034C-0.00117114 11.5296 0.0253794 11.6547 0.0781419 11.7714C0.130904 11.8882 0.208822 11.9942 0.307349 12.0834C0.405876 12.1726 0.523038 12.2432 0.652 12.2909C0.780962 12.3387 0.919141 12.3627 1.05847 12.3616C1.19781 12.3605 1.3355 12.3343 1.46353 12.2845C1.59155 12.2348 1.70734 12.1624 1.80414 12.0716L7.35838 7.0433L9.23988 8.74665C9.39993 8.89174 9.60755 8.98606 9.83171 9.0155C10.1423 8.8312 10.4907 8.6944 10.8653 8.6184L16.8026 3.2433V5.7C16.8026 5.95196 16.9131 6.19359 17.1099 6.37175C17.3067 6.54991 17.5736 6.65 17.8519 6.65C18.1302 6.65 18.3971 6.54991 18.5939 6.37175C18.7907 6.19359 18.9013 5.95196 18.9013 5.7V0.95ZM11.5558 9.5C10.9992 9.5 10.4654 9.70018 10.0718 10.0565C9.67821 10.4128 9.45709 10.8961 9.45709 11.4V17.1C9.45709 17.6039 9.67821 18.0872 10.0718 18.4435C10.4654 18.7998 10.9992 19 11.5558 19H18.9013C19.4579 19 19.9917 18.7998 20.3853 18.4435C20.7789 18.0872 21 17.6039 21 17.1V11.4C21 10.8961 20.7789 10.4128 20.3853 10.0565C19.9917 9.70018 19.4579 9.5 18.9013 9.5H11.5558ZM11.5558 12.825C11.5558 12.699 11.6111 12.5782 11.7095 12.4891C11.8079 12.4 11.9413 12.35 12.0805 12.35H18.3766C18.5158 12.35 18.6492 12.4 18.7476 12.4891C18.846 12.5782 18.9013 12.699 18.9013 12.825C18.9013 12.951 18.846 13.0718 18.7476 13.1609C18.6492 13.25 18.5158 13.3 18.3766 13.3H12.0805C11.9413 13.3 11.8079 13.25 11.7095 13.1609C11.6111 13.0718 11.5558 12.951 11.5558 12.825ZM11.5558 15.675C11.5558 15.549 11.6111 15.4282 11.7095 15.3391C11.8079 15.25 11.9413 15.2 12.0805 15.2H18.3766C18.5158 15.2 18.6492 15.25 18.7476 15.3391C18.846 15.4282 18.9013 15.549 18.9013 15.675C18.9013 15.801 18.846 15.9218 18.7476 16.0109C18.6492 16.1 18.5158 16.15 18.3766 16.15H12.0805C11.9413 16.15 11.8079 16.1 11.7095 16.0109C11.6111 15.9218 11.5558 15.801 11.5558 15.675Z" fill="#FBFBFB"/>
</g>
<defs>
<clipPath id="clip0_140_473">
<rect width="21" height="19" fill="white"/>
</clipPath>
</defs>
</svg>
