<svg width="61" height="61" viewBox="0 0 61 61" fill="none" xmlns="http://www.w3.org/2000/svg">
<path d="M51 0H10C4.47715 0 0 4.47715 0 10V51C0 56.5228 4.47715 61 10 61H51C56.5228 61 61 56.5228 61 51V10C61 4.47715 56.5228 0 51 0Z" fill="#F3E5F5"/>
<path d="M24.93 23C24.93 22.4067 24.754 21.8266 24.4244 21.3333C24.0948 20.8399 23.6262 20.4554 23.078 20.2284C22.5299 20.0013 21.9267 19.9419 21.3447 20.0576C20.7628 20.1734 20.2282 20.4591 19.8087 20.8787C19.3891 21.2982 19.1034 21.8328 18.9876 22.4147C18.8719 22.9967 18.9313 23.5999 19.1584 24.1481C19.3854 24.6962 19.7699 25.1648 20.2633 25.4944C20.7566 25.8241 21.3367 26 21.93 26C22.7256 26 23.4887 25.6839 24.0513 25.1213C24.6139 24.5587 24.93 23.7957 24.93 23ZM20.33 23C20.33 22.6836 20.4238 22.3742 20.5996 22.1111C20.7755 21.848 21.0253 21.6429 21.3177 21.5218C21.6101 21.4007 21.9318 21.369 22.2421 21.4307C22.5525 21.4925 22.8376 21.6449 23.0614 21.8686C23.2851 22.0924 23.4375 22.3775 23.4992 22.6879C23.561 22.9982 23.5293 23.3199 23.4082 23.6123C23.2871 23.9047 23.082 24.1545 22.8189 24.3304C22.5558 24.5062 22.2464 24.6 21.93 24.6C21.5056 24.6 21.0987 24.4314 20.7986 24.1314C20.4986 23.8313 20.33 23.4243 20.33 23Z" fill="#7B1FA2" stroke="#7B1FA2" stroke-width="0.7"/>
<path d="M30.38 32.77L26.38 28.77C26.1927 28.5838 25.9392 28.4792 25.675 28.4792C25.4108 28.4792 25.1574 28.5838 24.97 28.77L18.92 34.9V37.73L25.71 30.94L29 34.18L25.25 37.93H28L36.45 29.48L43 36V33.18L37.19 27.37C37.0027 27.1838 36.7492 27.0792 36.485 27.0792C36.2208 27.0792 35.9674 27.1838 35.78 27.37L30.38 32.77Z" fill="#7B1FA2" stroke="#7B1FA2" stroke-width="0.7"/>
<path d="M45 25.22V42H17V18H35.5C35.5026 17.3238 35.5968 16.651 35.78 16H17C16.4696 16 15.9609 16.2107 15.5858 16.5858C15.2107 16.9609 15 17.4696 15 18V42C15 42.5304 15.2107 43.0391 15.5858 43.4142C15.9609 43.7893 16.4696 44 17 44H45C45.5304 44 46.0391 43.7893 46.4142 43.4142C46.7893 43.0391 47 42.5304 47 42V24.34C46.3802 24.73 45.7063 25.0266 45 25.22Z" fill="#7B1FA2" stroke="#7B1FA2" stroke-width="0.7"/>
<path d="M43 23C45.7614 23 48 20.7614 48 18C48 15.2386 45.7614 13 43 13C40.2386 13 38 15.2386 38 18C38 20.7614 40.2386 23 43 23Z" fill="#7B1FA2"/>
</svg>
