<svg width="61" height="61" viewBox="0 0 61 61" fill="none" xmlns="http://www.w3.org/2000/svg">
<path d="M51 0H10C4.47715 0 0 4.47715 0 10V51C0 56.5228 4.47715 61 10 61H51C56.5228 61 61 56.5228 61 51V10C61 4.47715 56.5228 0 51 0Z" fill="#F7D8DE"/>
<path d="M18 21H15V42C15 43.65 16.35 45 18 45H39V42H18V21ZM42 15H24C22.35 15 21 16.35 21 18V36C21 37.65 22.35 39 24 39H42C43.65 39 45 37.65 45 36V18C45 16.35 43.65 15 42 15ZM37.5 18V25.5L36 24.375L34.5 25.5V18H37.5ZM42 36H24V18H31.5V31.5L36 28.125L40.5 31.5V18H42V36Z" fill="#E40884"/>
</svg>
