<svg width="61" height="61" viewBox="0 0 61 61" fill="none" xmlns="http://www.w3.org/2000/svg">
<path d="M51 0H10C4.47715 0 0 4.47715 0 10V51C0 56.5228 4.47715 61 10 61H51C56.5228 61 61 56.5228 61 51V10C61 4.47715 56.5228 0 51 0Z" fill="#CFEEFF"/>
<path d="M43 15H25C23.3455 15 22 16.3455 22 18V36C22 37.6545 23.3455 39 25 39H43C44.6545 39 46 37.6545 46 36V18C46 16.3455 44.6545 15 43 15ZM25 36V18H43L43.003 36H25Z" fill="#0FA9FF"/>
<path d="M19 24H16V42C16 43.6545 17.3455 45 19 45H37V42H19V24Z" fill="#0FA9FF"/>
<path d="M31 30L29.5 28.5L26.5 33H41.5L35.5 24L31 30Z" fill="#0FA9FF"/>
</svg>
