<svg width="61" height="61" viewBox="0 0 61 61" fill="none" xmlns="http://www.w3.org/2000/svg">
<path d="M51 0H10C4.47715 0 0 4.47715 0 10V51C0 56.5228 4.47715 61 10 61H51C56.5228 61 61 56.5228 61 51V10C61 4.47715 56.5228 0 51 0Z" fill="#FFFFC7"/>
<path d="M42.0184 16.5C42.0184 16.1022 41.8604 15.7206 41.5791 15.4393C41.2978 15.158 40.9163 15 40.5184 15H33.0184C32.6206 15 32.2391 15.158 31.9578 15.4393C31.6765 15.7206 31.5184 16.1022 31.5184 16.5C31.5184 16.8978 31.6765 17.2794 31.9578 17.5607C32.2391 17.842 32.6206 18 33.0184 18H36.8974L29.2684 25.629L26.5789 22.9395C26.2976 22.6583 25.9162 22.5003 25.5184 22.5003C25.1207 22.5003 24.7392 22.6583 24.4579 22.9395L15.4579 31.9395C15.3147 32.0779 15.2004 32.2434 15.1218 32.4264C15.0432 32.6094 15.0018 32.8062 15.0001 33.0054C14.9983 33.2046 15.0363 33.4021 15.1117 33.5864C15.1871 33.7708 15.2985 33.9383 15.4393 34.0791C15.5802 34.2199 15.7477 34.3313 15.932 34.4067C16.1163 34.4822 16.3139 34.5201 16.513 34.5184C16.7122 34.5166 16.909 34.4753 17.092 34.3967C17.275 34.318 17.4406 34.2038 17.5789 34.0605L25.5184 26.121L28.2079 28.8105C28.4367 29.0396 28.7335 29.1885 29.0539 29.235C29.4979 28.944 29.9959 28.728 30.5314 28.608L39.0184 20.121V24C39.0184 24.3978 39.1765 24.7794 39.4578 25.0607C39.7391 25.342 40.1206 25.5 40.5184 25.5C40.9163 25.5 41.2978 25.342 41.5791 25.0607C41.8604 24.7794 42.0184 24.3978 42.0184 24V16.5ZM31.5184 30C30.7228 30 29.9597 30.3161 29.3971 30.8787C28.8345 31.4413 28.5184 32.2044 28.5184 33V42C28.5184 42.7956 28.8345 43.5587 29.3971 44.1213C29.9597 44.6839 30.7228 45 31.5184 45H42.0184C42.8141 45 43.5771 44.6839 44.1398 44.1213C44.7024 43.5587 45.0184 42.7956 45.0184 42V33C45.0184 32.2044 44.7024 31.4413 44.1398 30.8787C43.5771 30.3161 42.8141 30 42.0184 30H31.5184ZM31.5184 35.25C31.5184 35.0511 31.5974 34.8603 31.7381 34.7197C31.8788 34.579 32.0695 34.5 32.2684 34.5H41.2684C41.4673 34.5 41.6581 34.579 41.7988 34.7197C41.9394 34.8603 42.0184 35.0511 42.0184 35.25C42.0184 35.4489 41.9394 35.6397 41.7988 35.7803C41.6581 35.921 41.4673 36 41.2684 36H32.2684C32.0695 36 31.8788 35.921 31.7381 35.7803C31.5974 35.6397 31.5184 35.4489 31.5184 35.25ZM31.5184 39.75C31.5184 39.5511 31.5974 39.3603 31.7381 39.2197C31.8788 39.079 32.0695 39 32.2684 39H41.2684C41.4673 39 41.6581 39.079 41.7988 39.2197C41.9394 39.3603 42.0184 39.5511 42.0184 39.75C42.0184 39.9489 41.9394 40.1397 41.7988 40.2803C41.6581 40.421 41.4673 40.5 41.2684 40.5H32.2684C32.0695 40.5 31.8788 40.421 31.7381 40.2803C31.5974 40.1397 31.5184 39.9489 31.5184 39.75Z" fill="#FFF001"/>
</svg>
